<svg width="414" height="296" viewBox="0 0 414 296" fill="none" xmlns="http://www.w3.org/2000/svg">
<path d="M197.404 176.156C200.695 175.931 203.549 176.819 206.284 178.103C207.545 178.714 208.92 179.051 210.321 179.092L213.926 179.015L213.974 138.931C213.971 138.027 213.791 137.134 213.443 136.3C213.095 135.467 212.587 134.71 211.946 134.073C211.306 133.437 210.546 132.932 209.71 132.59C208.875 132.247 207.98 132.072 207.077 132.075L168.97 132.217V131.424C168.988 129.814 169.371 128.229 170.089 126.789C172.032 122.796 172.666 118.292 171.9 113.919C170.956 108.66 168.081 103.943 163.84 100.695C159.599 97.4462 154.296 95.8999 148.973 96.3587C143.65 96.8175 138.69 99.2488 135.067 103.175C131.444 107.102 129.419 112.24 129.389 117.583C129.398 120.518 130.023 123.418 131.224 126.096C131.839 127.444 132.164 128.906 132.177 130.388L132.402 132.194H86.4806C85.5778 132.191 84.6839 132.365 83.8486 132.707C83.0133 133.05 82.2544 133.554 81.6138 134.19C80.9733 134.826 80.4641 135.582 80.1161 136.415C79.768 137.247 79.5868 138.14 79.5838 139.043V178.239H76.3101C74.7881 178.224 73.2897 177.862 71.9293 177.18C68.0617 175.338 63.7182 174.74 59.4973 175.469C54.5274 176.369 50.0732 179.092 47.0055 183.105C43.9381 187.117 42.4784 192.13 42.9124 197.161C43.3463 202.193 45.6427 206.883 49.3516 210.31C53.0611 213.738 57.9161 215.659 62.9664 215.695C65.7589 215.696 68.52 215.109 71.0709 213.972C72.3472 213.393 73.7301 213.086 75.132 213.073H79.3352L79.4181 261.025C79.4205 261.76 79.5673 262.487 79.8514 263.167C80.135 263.845 80.5494 264.461 81.0709 264.979C81.5925 265.498 82.2111 265.908 82.8913 266.187C83.5721 266.467 84.3009 266.61 85.0362 266.607H207.965C211.067 266.607 213.5 262.712 213.5 259.628V216.08H208.527C207.376 216.081 206.237 216.304 205.171 216.737C202.295 217.894 199.176 218.314 196.097 217.959C193.018 217.604 190.076 216.486 187.54 214.706C185.002 212.926 182.95 210.54 181.569 207.765C180.188 204.99 179.522 201.915 179.632 198.817C180.005 189.493 188.056 176.807 197.404 176.156Z" fill="#E0E0E0"/>
<path d="M358.41 177.795C355.526 177.792 352.673 178.397 350.039 179.571C349.147 179.971 348.205 180.248 347.239 180.394V138.262C347.24 137.525 347.095 136.794 346.813 136.113C346.531 135.432 346.118 134.813 345.597 134.292C345.076 133.77 344.456 133.357 343.775 133.075C343.094 132.793 342.364 132.649 341.627 132.649H297.783V137.622C297.787 138.771 298.011 139.908 298.44 140.973C299.337 143.176 299.797 145.533 299.796 147.911C299.798 150.7 299.175 153.452 297.971 155.967C296.767 158.482 295.014 160.694 292.84 162.441C290.667 164.188 288.129 165.424 285.414 166.058C282.699 166.692 279.876 166.709 277.154 166.106C274.432 165.504 271.879 164.298 269.686 162.577C267.492 160.856 265.713 158.664 264.48 156.163C263.247 153.662 262.591 150.917 262.56 148.129C262.53 145.341 263.126 142.582 264.306 140.055C264.895 138.832 265.207 137.494 265.217 136.136V132.649L220.817 132.507C218.988 132.507 217.234 133.234 215.94 134.527C214.647 135.821 213.92 137.575 213.92 139.404L213.879 178.476H210.848C210.505 178.476 210.155 178.476 209.812 178.441C206.514 176.039 202.63 174.571 198.568 174.192C194.506 173.812 190.417 174.535 186.732 176.284C183.046 178.033 179.9 180.744 177.626 184.13C175.351 187.517 174.032 191.454 173.807 195.527C173.582 199.601 174.459 203.659 176.347 207.276C178.235 210.892 181.063 213.933 184.533 216.077C188.003 218.222 191.988 219.39 196.067 219.461C200.146 219.531 204.168 218.5 207.71 216.477C208.313 216.344 208.928 216.277 209.546 216.275H213.435V259.888C213.435 261.717 214.161 263.471 215.455 264.765C216.748 266.058 218.503 266.785 220.332 266.785H341.627C342.364 266.785 343.094 266.639 343.776 266.357C344.457 266.074 345.076 265.661 345.597 265.139C346.118 264.617 346.531 263.998 346.813 263.316C347.095 262.634 347.24 261.904 347.239 261.167V216.767C347.991 216.956 348.721 217.224 349.417 217.566C353.316 219.47 357.718 220.092 361.992 219.342C367.125 218.418 371.729 215.611 374.901 211.47C378.073 207.329 379.585 202.153 379.141 196.956C378.697 191.759 376.327 186.915 372.498 183.373C368.669 179.831 363.656 177.846 358.44 177.807L358.41 177.795Z" fill="#F5F5F5"/>
<path d="M210.552 185.568C210.552 185.568 212.547 184.544 214.305 184.929C216.064 185.314 222.445 189.476 222.445 189.476L227.59 188.516L230.644 203.056L210.552 211.38V185.568Z" fill="#AE7461"/>
<path d="M195.752 190.624C195.752 190.624 200.352 190.032 202.015 189.209C203.679 188.386 207.651 184.852 208.48 184.917C209.309 184.982 212.328 185.556 212.328 185.556L211.108 189.209C211.108 189.209 217.129 192.862 218.923 194.206C220.717 195.549 226.352 201.57 226.619 203.044C226.885 204.518 226.429 206.247 225.725 206.821C225.02 207.395 222.457 206.229 222.457 206.229C222.555 206.683 222.554 207.153 222.451 207.606C222.349 208.059 222.149 208.484 221.865 208.852C220.906 210.136 218.668 209.686 218.668 209.686C218.668 209.686 218.473 211.8 217.449 212.185C216.425 212.569 214.116 211.415 214.116 211.415C214.116 211.415 213.423 213.191 212.588 213.398C211.754 213.605 209.38 212.214 209.38 212.214C209.38 212.214 199.132 204.85 196.829 203.76C194.527 202.671 193.816 202.606 193.816 202.606L195.752 190.624Z" fill="#FFBE9D"/>
<path d="M214.104 211.445C214.063 211.445 214.033 211.267 213.926 210.995C213.779 210.641 213.604 210.299 213.405 209.971C213.08 209.522 212.815 209.032 212.618 208.514C213.067 208.861 213.43 209.306 213.678 209.817C213.886 210.164 214.039 210.542 214.134 210.936C214.187 211.249 214.14 211.451 214.104 211.445Z" fill="#EB996E"/>
<path d="M218.36 210.201C217.883 209.588 217.45 208.94 217.064 208.266C216.365 207.2 215.614 206.49 215.667 206.419C216.357 206.821 216.929 207.399 217.324 208.094C217.799 208.726 218.15 209.44 218.36 210.201Z" fill="#EB996E"/>
<path d="M222.469 206.501C222.38 206.501 222.096 205.418 221.386 204.222C220.675 203.026 219.864 202.227 219.929 202.162C220.628 202.672 221.215 203.321 221.651 204.067C222.088 204.814 222.367 205.642 222.469 206.501Z" fill="#EB996E"/>
<path d="M219.468 198.509C219.872 199.619 219.926 200.826 219.621 201.967C219.515 201.397 219.476 200.817 219.503 200.238C219.428 199.665 219.417 199.085 219.468 198.509Z" fill="#EB996E"/>
<path d="M204.561 192.743C204.561 192.743 206.159 187.623 206.734 186.977C207.308 186.332 212.654 184.929 212.654 184.929L214.317 189.221L213.133 190.476L210.57 190.31C210.57 190.31 208.977 194.537 204.561 192.743Z" fill="#AE7461"/>
<path d="M194.734 202.878C194.734 202.878 194 203.441 194.734 204.785C195.468 206.128 197.451 205.169 198.09 204.785C198.09 204.785 197.131 207.028 198.345 207.745C199.174 208.173 200.11 208.35 201.039 208.254C201.039 208.254 200.973 209.598 202.702 210.497C204.431 211.397 204.881 210.497 204.881 210.497C204.881 210.497 205.07 212.735 207.053 212.931C209.036 213.126 209.741 212.439 209.741 212.439L208.847 211.113C208.847 211.113 210.001 208.745 209.108 207.745C208.798 207.436 208.428 207.196 208.02 207.041C207.612 206.886 207.175 206.819 206.74 206.845C206.74 206.845 207.136 204.767 205.994 204.187C205.738 204.028 205.452 203.926 205.155 203.887C204.856 203.848 204.554 203.874 204.267 203.961C203.979 204.049 203.714 204.198 203.489 204.397C203.264 204.596 203.084 204.841 202.963 205.116C202.963 205.116 202.832 202.837 201.187 202.89C200.226 202.901 199.306 203.286 198.623 203.962L194.734 202.878Z" fill="#AE7461"/>
<path d="M202.957 205.104C202.815 205.719 202.556 206.3 202.193 206.815C201.918 207.379 201.538 207.885 201.074 208.307C201.281 207.72 201.567 207.164 201.927 206.655C202.198 206.094 202.545 205.572 202.957 205.104Z" fill="#6F4439"/>
<path d="M206.775 207.123C206.621 207.772 206.323 208.379 205.905 208.899C205.57 209.476 205.113 209.973 204.567 210.355C205.275 209.261 206.011 208.185 206.775 207.129V207.123Z" fill="#6F4439"/>
<path d="M167.105 231.288H157.39L154.904 266.619H164.648C166.306 261.238 170.45 233.201 170.45 233.201L167.105 231.288Z" fill="#263238"/>
<path d="M112.091 231.288C112.091 231.288 105.869 245.869 106.49 251.772C107.112 257.674 110.605 266.619 110.605 266.619H158.722C159.739 262.593 160.529 258.514 161.09 254.4C162.132 247.107 164.927 231.312 164.927 231.312L112.091 231.288Z" fill="#263238"/>
<path d="M175.671 90.576C174.043 88.5217 172.036 86.5504 171.622 83.9634C171.237 81.5953 172.279 78.9905 171.214 76.8593C169.899 74.2013 166.134 73.6862 164.5 71.2176C163.713 70.0336 163.523 68.5062 162.724 67.3045C161.398 65.2561 158.663 64.599 156.212 64.7352C153.761 64.8713 151.429 65.6291 148.984 65.712C145.633 65.783 142.241 64.528 138.991 65.3272C135.403 66.2093 133.071 69.2344 130.638 72.1529L127.465 75.5214C126.824 76.098 126.128 76.6095 125.387 77.0488C124.084 77.8006 122.616 78.292 121.48 79.2806C119.047 81.3941 119.035 85.6861 121.48 87.8113C120.178 88.1902 119.034 88.977 118.213 90.0556C117.392 91.1337 116.94 92.4473 116.921 93.8024C116.921 95.2883 117.513 96.7091 117.857 98.1477C118.2 99.5862 118.449 101.179 117.768 102.511C117.087 103.843 115.323 104.689 114.062 103.902C114.253 104.875 114.658 105.793 115.248 106.589C115.837 107.386 116.597 108.041 117.472 108.508C116.729 109.193 115.753 109.57 114.743 109.561C117.146 116.073 124.351 119.75 131.259 120.117C138.168 120.484 144.911 118.175 151.447 115.902L170.29 111.953C171.942 111.657 172.717 109.704 172.771 108.022C172.824 106.341 172.486 104.583 173.161 103.044C174.079 100.936 176.63 99.9178 177.589 97.8221C178.655 95.4186 177.293 92.6421 175.671 90.576Z" fill="#263238"/>
<path d="M130.833 105.477C129.685 101.208 128.554 96.9104 128.157 92.5059C127.761 88.1014 128.157 83.5549 129.874 79.4819C130.141 78.8899 132.349 74.7459 133.012 74.8584C133.485 74.9294 132.059 78.7952 132.278 79.2214C134.373 83.2826 134.752 88.06 134.148 92.5947C133.525 96.9945 132.413 101.311 130.833 105.465" fill="#263238"/>
<path d="M131.265 88.6105C131.473 77.5224 138.103 68.4056 149.179 68.9265L150.198 69.0331C155.154 69.5499 159.735 71.9144 163.026 75.657C166.317 79.399 168.078 84.244 167.958 89.2262C167.721 98.8344 167.366 109.449 166.738 114.552C165.489 125.119 154.732 125.652 154.732 125.652L154.442 143.104L129.259 125.658L131.265 88.6105Z" fill="#FFBE9D"/>
<path d="M154.715 125.652C149.831 125.123 145.2 123.206 141.371 120.129C141.371 120.129 143.851 129.068 154.507 129.228L154.715 125.652Z" fill="#EB996E"/>
<path d="M164.275 97.4314C164.236 97.8256 164.045 98.1891 163.742 98.4443C163.439 98.7 163.049 98.8273 162.653 98.7989C162.46 98.7947 162.268 98.7509 162.091 98.671C161.915 98.5917 161.756 98.4768 161.624 98.3342C161.493 98.1915 161.392 98.024 161.327 97.8416C161.261 97.6593 161.233 97.4651 161.244 97.2715C161.282 96.8773 161.472 96.5132 161.774 96.2568C162.075 96.0005 162.466 95.8715 162.86 95.8981C163.055 95.904 163.246 95.949 163.422 96.0295C163.599 96.11 163.758 96.2255 163.889 96.3681C164.021 96.5108 164.123 96.6783 164.19 96.8607C164.256 97.0436 164.285 97.2372 164.275 97.4314Z" fill="#263238"/>
<path d="M165.217 93.3821C165.009 93.5597 163.956 92.5888 162.328 92.423C160.7 92.2573 159.421 92.944 159.267 92.725C159.19 92.6302 159.421 92.2928 159.977 91.9672C160.733 91.5575 161.597 91.3882 162.452 91.4818C163.299 91.567 164.095 91.9222 164.725 92.4941C165.187 92.944 165.317 93.3051 165.217 93.3821Z" fill="#263238"/>
<path d="M149.576 97.4314C149.538 97.8251 149.348 98.1885 149.046 98.4443C148.744 98.6994 148.354 98.8273 147.96 98.7989C147.766 98.7947 147.574 98.7509 147.397 98.671C147.22 98.5917 147.061 98.4768 146.929 98.3348C146.797 98.1921 146.695 98.0246 146.629 97.8422C146.563 97.6593 146.534 97.4657 146.545 97.2715C146.583 96.8773 146.772 96.5132 147.074 96.2568C147.376 96.0005 147.766 95.8715 148.161 95.8981C148.355 95.904 148.546 95.949 148.723 96.0295C148.899 96.11 149.059 96.2255 149.19 96.3681C149.322 96.5108 149.424 96.6783 149.49 96.8607C149.557 97.0436 149.586 97.2372 149.576 97.4314Z" fill="#263238"/>
<path d="M149.221 92.352C149.014 92.5296 147.954 91.5646 146.326 91.3989C144.698 91.2331 143.425 91.9198 143.271 91.7008C143.194 91.6001 143.419 91.2686 143.982 90.943C144.737 90.5304 145.601 90.3605 146.456 90.4576C147.302 90.5434 148.097 90.8963 148.729 91.464C149.185 91.908 149.321 92.2809 149.221 92.352Z" fill="#263238"/>
<path d="M153.72 105.471C153.72 105.376 154.75 105.311 156.408 105.269C156.828 105.269 157.231 105.234 157.331 104.956C157.41 104.53 157.359 104.09 157.183 103.695C156.899 102.645 156.601 101.548 156.289 100.403C155.058 95.7205 154.211 91.8902 154.401 91.8429C154.59 91.7955 155.745 95.5488 156.97 100.232C157.266 101.384 157.546 102.485 157.811 103.535C158.024 104.062 158.041 104.648 157.858 105.187C157.783 105.327 157.677 105.449 157.547 105.542C157.418 105.635 157.269 105.698 157.112 105.725C156.874 105.757 156.634 105.757 156.396 105.725C154.756 105.666 153.72 105.565 153.72 105.471Z" fill="#263238"/>
<path d="M148.83 106.092C149.097 106.092 148.913 107.868 150.292 109.277C151.672 110.686 153.572 110.698 153.56 110.947C153.56 111.059 153.104 111.243 152.305 111.184C151.271 111.086 150.303 110.629 149.57 109.893C148.87 109.182 148.471 108.227 148.457 107.229C148.469 106.483 148.712 106.069 148.83 106.092Z" fill="#263238"/>
<path d="M149.825 85.7512C149.617 86.1774 148.019 85.7986 146.083 85.8282C144.147 85.8578 142.531 86.213 142.342 85.7867C142.253 85.5854 142.561 85.1947 143.23 84.8395C144.115 84.4026 145.089 84.1729 146.077 84.1676C147.065 84.1629 148.04 84.3819 148.931 84.8099C149.576 85.1651 149.919 85.5499 149.825 85.7512Z" fill="#263238"/>
<path d="M165.116 87.9061C164.79 88.2435 163.707 87.7403 162.363 87.5805C161.019 87.4206 159.853 87.5805 159.628 87.1542C159.533 86.953 159.752 86.6037 160.285 86.3077C160.999 85.9596 161.799 85.8299 162.586 85.9347C163.373 86.0401 164.111 86.3758 164.707 86.8997C165.146 87.3437 165.258 87.7403 165.116 87.9061Z" fill="#263238"/>
<path d="M131.301 96.5374C131.129 96.4427 124.256 93.6189 123.723 100.877C123.191 108.135 130.591 107.152 130.632 106.968C130.673 106.785 131.301 96.5374 131.301 96.5374Z" fill="#FFBE9D"/>
<path d="M128.601 104.056C128.601 104.026 128.471 104.133 128.252 104.216C127.941 104.32 127.602 104.301 127.305 104.162C126.559 103.831 126.003 102.564 126.062 101.25C126.09 100.629 126.255 100.023 126.547 99.4737C126.632 99.2523 126.77 99.0546 126.949 98.8977C127.127 98.7409 127.34 98.6301 127.571 98.5739C127.719 98.5461 127.871 98.5715 128.003 98.645C128.134 98.7184 128.234 98.8362 128.288 98.9765C128.371 99.1837 128.317 99.3257 128.353 99.3435C128.388 99.3613 128.519 99.231 128.483 98.9291C128.455 98.745 128.365 98.5757 128.228 98.4496C128.039 98.285 127.793 98.1998 127.542 98.2128C127.239 98.2495 126.951 98.3638 126.705 98.5443C126.46 98.7249 126.264 98.9652 126.139 99.2429C125.785 99.8491 125.583 100.531 125.547 101.232C125.487 102.7 126.139 104.127 127.163 104.506C127.355 104.579 127.562 104.607 127.767 104.589C127.972 104.57 128.17 104.505 128.347 104.399C128.578 104.228 128.625 104.068 128.601 104.056Z" fill="#EB996E"/>
<path d="M164.015 76.8949C165.234 76.3029 161.949 72.2891 159.149 70.7914C154.91 68.5299 148.321 66.8842 144.224 67.7662C139.287 68.8259 135.108 70.9808 132.384 75.2314C129.661 79.4819 128.424 84.5672 128.24 89.611C128.181 91.1502 128.24 92.7605 128.974 94.1162C129.886 95.7856 131.769 96.9222 131.538 99.1304C131.483 99.5288 131.506 99.9337 131.608 100.323C131.71 100.712 131.887 101.077 132.13 101.398C133.367 102.896 135.09 101.67 135.913 100.391C137.689 97.6445 138.085 94.2642 138.435 91.0141C138.683 88.7053 138.932 86.3432 138.435 84.0758C138.156 82.8445 137.659 81.6605 137.452 80.4173C137.309 79.7998 137.301 79.1593 137.431 78.5389C137.559 77.9185 137.821 77.3336 138.198 76.8238C138.388 76.6072 138.598 76.4089 138.825 76.2318C139.896 75.4137 141.164 74.8945 142.5 74.7282C143.837 74.5618 145.195 74.7536 146.432 75.2846C150.428 76.9955 157.272 79.6062 159.19 78.3394C161.943 76.5101 162.653 75.2491 162.653 75.2491L164.015 76.8949Z" fill="#263238"/>
<path d="M144.662 66.8013C148.741 65.7238 153.282 66.085 156.893 68.2635C158.805 69.4475 160.492 71.1821 160.96 73.3725C161.428 75.5629 160.339 78.144 158.213 78.8544L158.065 78.9373C154.898 79.7779 152.915 79.2333 149.896 77.9664C147.35 76.9008 145.16 75.1485 142.596 74.0888C139.866 72.9664 136.862 72.6858 133.971 73.2837C136.955 70.3 140.589 67.8787 144.662 66.8013Z" fill="#263238"/>
<path d="M146.504 65.5403C146.752 65.5368 147.001 65.5622 147.244 65.6173C147.909 65.7345 148.563 65.9109 149.197 66.1441C150.141 66.4952 151.039 66.9581 151.873 67.5235C152.904 68.2114 153.805 69.0751 154.537 70.075C155.232 71.1021 155.728 72.2512 155.999 73.4613C156.234 74.4333 156.385 75.4237 156.449 76.4213C156.508 77.2737 156.508 77.9664 156.502 78.44C156.511 78.688 156.493 78.9361 156.449 79.18C156.4 78.9367 156.378 78.6886 156.384 78.44C156.354 77.9664 156.319 77.256 156.23 76.439C156.135 75.4551 155.967 74.4795 155.727 73.5205C155.446 72.3495 154.956 71.2389 154.282 70.2408C153.574 69.2675 152.703 68.4245 151.707 67.7485C150.899 67.1813 150.029 66.7089 149.114 66.3395C148.258 66.0287 147.387 65.7617 146.504 65.5403Z" fill="#455A64"/>
<path d="M153.187 65.12C153.402 65.1531 153.613 65.2106 153.815 65.2917C154.06 65.3657 154.299 65.4568 154.531 65.564L155.437 66.0198C157.129 67.0606 158.447 68.611 159.202 70.448C159.42 70.9666 159.598 71.5006 159.735 72.0464C159.851 72.5567 159.931 73.0753 159.972 73.5974C160.014 74.0681 160.023 74.5405 160.001 75.0123C159.972 75.4238 159.916 75.8334 159.835 76.2378C159.77 76.5716 159.679 76.9002 159.563 77.2205C159.487 77.4632 159.39 77.6988 159.273 77.925C159.186 78.1357 159.072 78.3346 158.936 78.517C159.234 77.7758 159.464 77.0091 159.622 76.2259C159.684 75.8334 159.726 75.4386 159.747 75.0419C159.754 74.5813 159.736 74.1208 159.693 73.6626C159.642 73.1564 159.559 72.6544 159.445 72.1589C159.303 71.6332 159.127 71.117 158.918 70.6138C158.184 68.8324 156.932 67.3122 155.324 66.2507L154.454 65.7594C154.231 65.6415 154.002 65.5368 153.767 65.4456C153.56 65.3657 153.364 65.2556 153.187 65.12Z" fill="#455A64"/>
<path d="M157.923 141.352C157.923 142.352 162.914 164.28 164.826 169.667C166.738 175.054 172.788 229.068 171.989 232.916C171.19 236.764 169.124 236.611 169.124 236.611C169.124 236.611 120.236 233.532 114.98 233.994C109.723 234.456 107.497 234.302 106.224 228.299C104.951 222.296 106.259 191.104 105.146 183.561C104.033 176.019 104.022 172.367 103.589 161.166C103.216 151.451 105.425 143.667 110.042 138.043C114.66 132.419 124.884 126.741 124.884 126.741L128.513 121.449L154.17 135.023L154.762 131.933L156.319 136.74L157.923 141.352Z" fill="#455A64"/>
<g opacity="0.3">
<path opacity="0.3" d="M168.952 208.195C168.52 207.105 167.135 206.827 165.992 206.703C155.117 205.519 143.804 202.778 135.859 195.259C132.757 192.299 130.306 188.747 127.944 185.195C122.782 177.393 117.934 169.389 113.085 161.385L109.32 162.8C111.635 174.095 113.908 182.271 117.667 191.53C121.426 200.789 124.351 209.775 133.882 212.806C140.045 214.766 151.749 213.262 158.196 212.759C160.884 212.627 163.551 212.21 166.152 211.516C166.949 211.32 167.691 210.944 168.319 210.415C168.626 210.144 168.849 209.791 168.961 209.398C169.074 209.004 169.07 208.586 168.952 208.195Z" fill="black"/>
</g>
<path d="M107.976 159.84C108.254 160.343 130.01 206.815 139.725 208.727C149.44 210.64 179.632 211.095 185.522 209.965C191.413 208.834 197.179 207.816 197.179 207.816C197.179 207.816 201.447 197.681 197.552 189.049L189.441 189.304C189.441 189.304 166.892 188.084 163.707 187.214C160.522 186.344 157.787 183.36 154.904 183.52L137.736 143.601C137.736 143.601 126.589 133.247 118.626 136.432C110.664 139.617 105.638 155.696 107.976 159.84Z" fill="#455A64"/>
<path d="M190.069 209.438C190.092 209.172 190.146 208.91 190.229 208.656C190.359 208.159 190.519 207.437 190.684 206.543C190.85 205.649 191.01 204.572 191.117 203.37C191.22 202.066 191.248 200.758 191.2 199.451C191.094 197.077 190.725 194.722 190.098 192.43C189.856 191.548 189.637 190.843 189.465 190.358C189.368 190.11 189.293 189.854 189.24 189.594C189.377 189.822 189.49 190.065 189.577 190.316C189.855 190.986 190.098 191.669 190.306 192.364C190.996 194.664 191.394 197.041 191.49 199.439C191.537 200.758 191.501 202.079 191.383 203.393C191.278 204.466 191.11 205.532 190.88 206.584C190.732 207.295 190.547 207.996 190.323 208.686C190.261 208.943 190.175 209.195 190.069 209.438Z" fill="#263238"/>
<path d="M137.736 143.613C137.736 143.613 137.848 143.85 138.062 144.318L138.973 146.402L142.472 154.394C145.467 161.326 149.771 171.301 155.028 183.479L154.91 183.408C156.263 183.448 157.579 183.857 158.716 184.592C159.9 185.243 161.043 186.001 162.298 186.575C163.593 187.128 164.976 187.449 166.383 187.522C167.81 187.694 169.266 187.818 170.746 187.948C176.666 188.434 182.935 188.824 189.465 189.185L197.575 188.925H197.676L197.717 189.014C198.95 191.954 199.493 195.137 199.304 198.32C199.162 201.601 198.491 204.838 197.315 207.905V207.981H197.232L192.076 208.935L186.428 209.977C184.563 210.314 182.675 210.512 180.78 210.569C177.027 210.734 173.333 210.752 169.698 210.734C166.063 210.717 162.499 210.628 159.007 210.497C155.514 210.367 152.104 210.196 148.771 209.941C147.107 209.823 145.468 209.663 143.845 209.485C142.251 209.331 140.668 209.065 139.109 208.692C138.368 208.398 137.672 207.999 137.043 207.508C136.419 207.034 135.826 206.519 135.267 205.969C134.195 204.898 133.189 203.763 132.254 202.571C128.908 198.195 125.855 193.602 123.114 188.824C118.016 180.11 114.334 172.811 111.806 167.767C110.551 165.239 109.598 163.268 108.959 161.924C108.319 160.58 108.006 159.87 108.006 159.87C108.006 159.87 108.1 160.041 108.266 160.385C108.432 160.728 108.692 161.237 109.018 161.9L111.913 167.714C114.476 172.74 118.182 180.021 123.303 188.712C126.035 193.467 129.076 198.037 132.408 202.393C133.337 203.576 134.338 204.701 135.403 205.761C135.946 206.304 136.524 206.81 137.132 207.277C137.74 207.754 138.414 208.141 139.133 208.425C140.682 208.789 142.255 209.046 143.839 209.195C145.45 209.373 147.09 209.527 148.753 209.645C152.074 209.894 155.49 210.071 158.977 210.196C162.464 210.32 166.034 210.403 169.633 210.421C173.232 210.438 176.956 210.421 180.697 210.249C182.578 210.19 184.452 209.992 186.304 209.657L191.945 208.615L197.108 207.662L196.989 207.757C198.151 204.725 198.817 201.527 198.961 198.285C199.135 195.146 198.59 192.01 197.368 189.114L197.51 189.203L189.4 189.458C182.888 189.085 176.601 188.694 170.675 188.197C169.195 188.067 167.715 187.936 166.306 187.765C165.584 187.682 164.873 187.593 164.169 187.457C163.467 187.327 162.786 187.102 162.144 186.788C160.865 186.196 159.717 185.432 158.545 184.787C157.448 184.079 156.179 183.684 154.874 183.644H154.791L154.756 183.567C149.54 171.366 145.284 161.379 142.324 154.441L138.92 146.431L138.038 144.336C137.848 143.856 137.736 143.613 137.736 143.613Z" fill="#263238"/>
<path d="M135.481 140.476C135.481 140.476 135.179 140.197 134.634 139.694C133.868 138.99 133.036 138.361 132.148 137.818C130.833 137.01 129.41 136.394 127.921 135.988C124.254 134.961 120.335 135.354 116.945 137.089C115.564 137.779 114.289 138.664 113.162 139.718C112.396 140.434 111.704 141.226 111.096 142.08C110.888 142.401 110.662 142.712 110.421 143.009C110.455 142.915 110.501 142.826 110.557 142.743C110.658 142.577 110.782 142.317 110.995 142.009C111.578 141.13 112.255 140.319 113.014 139.588C115.529 137.133 118.803 135.605 122.3 135.255C125.797 134.906 129.309 135.755 132.26 137.664C133.152 138.227 133.976 138.891 134.717 139.641C134.925 139.84 135.122 140.049 135.309 140.268C135.374 140.331 135.432 140.4 135.481 140.476Z" fill="#263238"/>
<path d="M154.839 183.561C154.575 184.716 154.208 185.846 153.744 186.936C153.374 188.06 152.911 189.151 152.358 190.198C152.622 189.045 152.989 187.917 153.454 186.829C153.822 185.703 154.285 184.61 154.839 183.561Z" fill="#263238"/>
<path d="M194.254 191.216C194.254 191.216 194.337 191.175 194.479 191.216C194.671 191.3 194.825 191.452 194.911 191.642C194.992 191.783 195.035 191.942 195.035 192.104C195.035 192.266 194.992 192.425 194.911 192.566C194.804 192.734 194.65 192.868 194.469 192.952C194.287 193.036 194.086 193.067 193.887 193.039C193.688 192.998 193.507 192.896 193.369 192.748C193.23 192.599 193.14 192.412 193.112 192.211C193.083 192.052 193.095 191.889 193.146 191.737C193.198 191.585 193.288 191.448 193.408 191.34C193.488 191.269 193.582 191.216 193.684 191.183C193.785 191.151 193.893 191.14 194 191.151C194.142 191.151 194.213 191.198 194.207 191.216C194.201 191.234 193.864 191.216 193.568 191.494C193.491 191.584 193.435 191.691 193.407 191.806C193.377 191.921 193.376 192.041 193.402 192.157C193.426 192.298 193.49 192.429 193.586 192.534C193.683 192.639 193.808 192.714 193.946 192.749C194.089 192.765 194.233 192.743 194.364 192.684C194.495 192.626 194.608 192.534 194.692 192.418C194.755 192.318 194.793 192.205 194.802 192.087C194.811 191.97 194.792 191.851 194.746 191.743C194.568 191.317 194.242 191.257 194.254 191.216Z" fill="#263238"/>
<path d="M154.786 136.568C154.58 136.485 154.382 136.384 154.194 136.267L152.571 135.337L152.69 135.29C152.37 136.906 152.056 139.286 151.506 142.139L151.464 142.329L151.305 142.228C148.937 140.724 146.059 139.008 143.017 137.166C140.743 135.805 138.618 134.431 136.664 133.247C134.711 132.063 132.893 131.045 131.384 130.199L127.79 128.198L126.814 127.653C126.699 127.59 126.589 127.521 126.482 127.446C126.609 127.481 126.73 127.533 126.843 127.6L127.844 128.097C128.714 128.535 129.957 129.18 131.49 130.009C133.024 130.838 134.829 131.832 136.818 132.969L143.188 136.876C146.237 138.717 149.108 140.428 151.476 141.973L151.275 142.056C151.837 139.227 152.187 136.841 152.554 135.231V135.124L152.648 135.177L154.229 136.166C154.425 136.285 154.612 136.419 154.786 136.568Z" fill="#263238"/>
<g opacity="0.3">
<path opacity="0.3" d="M130.105 129.358L143.496 139.339C146.456 141.535 149.458 143.767 152.968 144.886L152.761 135.568L151.393 142.08L130.105 129.358Z" fill="black"/>
</g>
<path d="M267.976 82.7498C266.796 82.909 265.599 82.6243 264.618 81.9506C263.636 81.2769 262.94 80.2622 262.664 79.1042C262.388 77.9463 262.552 76.7268 263.125 75.6831C263.697 74.6394 264.637 73.8455 265.762 73.4554C265.017 72.7177 264.523 71.7646 264.349 70.731C264.177 69.6973 264.332 68.6353 264.796 67.6952C265.259 66.7551 266.007 65.9849 266.932 65.493C267.858 65.001 268.915 64.8128 269.953 64.9542C269.976 63.9212 270.266 62.9118 270.795 62.0244C271.324 61.137 272.075 60.4018 272.974 59.8915C273.872 59.3806 274.887 59.1119 275.921 59.111C276.954 59.1103 277.97 59.3776 278.869 59.8867C280.015 58.9138 281.454 58.3531 282.957 58.2941C284.459 58.235 285.938 58.6812 287.157 59.5611C288.16 59.3551 289.202 59.4771 290.13 59.9086C291.059 60.3396 291.824 61.0583 292.314 61.9569C292.803 62.8562 292.99 63.8892 292.849 64.9027C292.707 65.9168 292.243 66.8581 291.526 67.5886" fill="#263238"/>
<path d="M267.307 83.4365C267.615 78.3281 269.835 73.5223 273.525 69.9762C277.215 66.4301 282.105 64.4025 287.222 64.2971H288.276C299.66 64.7293 305.651 74.6394 304.905 85.9998L305.58 126.552L277.922 136.462L277.679 121.857C277.679 121.857 266.715 120.383 266.36 109.425C266.2 104.192 266.715 93.2874 267.307 83.4365Z" fill="#AE7461"/>
<path d="M277.59 121.845C282.657 121.741 287.588 120.185 291.798 117.364C291.798 117.364 288.589 125.297 277.667 124.533L277.59 121.845Z" fill="#6F4439"/>
<path d="M270.38 93.317C270.384 93.7231 270.546 94.112 270.833 94.4003C271.119 94.6886 271.507 94.8544 271.913 94.8621C272.112 94.8739 272.312 94.8461 272.5 94.7792C272.688 94.7129 272.861 94.6087 273.009 94.4743C273.156 94.3394 273.275 94.1765 273.358 93.9948C273.441 93.8137 273.488 93.6171 273.493 93.4176C273.489 93.0115 273.327 92.6225 273.04 92.3342C272.754 92.0459 272.366 91.8802 271.96 91.8725C271.761 91.8612 271.562 91.8902 271.374 91.9571C271.186 92.024 271.013 92.1276 270.866 92.262C270.719 92.397 270.6 92.5592 270.516 92.7404C270.433 92.9215 270.386 93.1175 270.38 93.317Z" fill="#263238"/>
<path d="M269.752 88.7349C269.947 88.9361 271.114 88.0363 272.789 88.0067C274.464 87.9771 275.719 88.7882 275.897 88.5987C275.98 88.504 275.779 88.1429 275.234 87.764C274.497 87.2744 273.626 87.024 272.742 87.0477C271.868 87.0643 271.023 87.3567 270.326 87.8824C269.835 88.2731 269.669 88.6461 269.752 88.7349Z" fill="#263238"/>
<path d="M285.677 93.317C285.681 93.7237 285.845 94.1126 286.133 94.4003C286.42 94.688 286.809 94.8514 287.216 94.8561C287.415 94.868 287.614 94.8402 287.802 94.7739C287.99 94.7076 288.163 94.6046 288.31 94.4702C288.457 94.3364 288.576 94.1742 288.66 93.993C288.743 93.8125 288.789 93.6165 288.797 93.4176C288.791 93.0109 288.627 92.6219 288.34 92.3336C288.052 92.0453 287.664 91.8802 287.257 91.8725C287.058 91.8618 286.86 91.8914 286.672 91.9589C286.484 92.0258 286.312 92.13 286.165 92.2644C286.018 92.3988 285.899 92.561 285.815 92.7415C285.731 92.9221 285.684 93.118 285.677 93.317Z" fill="#263238"/>
<path d="M286.281 88.7112C286.476 88.9125 287.642 88.0127 289.318 87.9831C290.993 87.9535 292.278 88.7645 292.426 88.5751C292.514 88.4803 292.307 88.1192 291.763 87.7403C291.031 87.2537 290.167 87.0033 289.288 87.024C288.415 87.0406 287.57 87.333 286.873 87.8587C286.328 88.2495 286.18 88.6224 286.281 88.7112Z" fill="#263238"/>
<path d="M280.438 101.285C280.438 101.191 279.396 101.031 277.703 100.853C277.27 100.818 276.862 100.741 276.785 100.451C276.741 100.008 276.832 99.5619 277.045 99.1718C277.43 98.124 277.827 97.0288 278.229 95.8803C279.899 91.1976 281.095 87.3496 280.905 87.2845C280.716 87.2193 279.212 90.9608 277.543 95.6435C277.148 96.7961 276.765 97.899 276.394 98.9528C276.137 99.4761 276.072 100.073 276.211 100.64C276.278 100.786 276.377 100.915 276.501 101.018C276.625 101.12 276.771 101.193 276.927 101.232C277.165 101.291 277.41 101.319 277.655 101.315C279.378 101.398 280.408 101.386 280.438 101.285Z" fill="#263238"/>
<path d="M285.653 83.0043C285.884 83.4247 287.311 82.9333 289.081 82.8445C290.851 82.7557 292.349 83.0103 292.503 82.5663C292.568 82.3531 292.248 81.9743 291.603 81.6487C290.77 81.255 289.851 81.0815 288.933 81.1455C288.023 81.194 287.142 81.4841 286.381 81.9861C285.801 82.3887 285.552 82.8031 285.653 83.0043Z" fill="#263238"/>
<path d="M269.444 82.7912C269.805 83.1701 271.179 82.7438 272.848 82.6906C274.518 82.6373 275.933 82.8859 276.246 82.4775C276.388 82.2821 276.157 81.8855 275.53 81.5599C274.669 81.1395 273.715 80.9418 272.757 80.985C271.8 81.0288 270.868 81.3118 270.048 81.8085C269.468 82.217 269.284 82.6136 269.444 82.7912Z" fill="#263238"/>
<path d="M268.26 78.4045C268.26 78.4045 271.001 71.5017 274.269 69.8382C278.224 67.8254 280.029 72.1707 283.818 71.0222C287.607 69.8737 291.378 67.9497 295.326 70.815C299.654 73.9467 297.694 76.2496 298.061 81.0921C299.53 100.729 303.236 106.211 304.064 96.9341C304.159 95.9158 306.959 95.0515 307.285 90.7595C307.717 85.1888 307.788 78.44 306.468 74.5209C305.355 71.2176 303.413 68.9561 299.956 66.4934C294.509 62.6099 287.139 62.675 282.148 63.2789C277.158 63.8827 267.627 69.856 268.26 78.4045Z" fill="#263238"/>
<path d="M303.366 96.6558C303.37 96.2539 303.456 95.8572 303.618 95.4902C303.78 95.1226 304.015 94.7922 304.309 94.5187C304.604 94.2446 304.951 94.0339 305.328 93.8989C305.707 93.7633 306.109 93.7065 306.509 93.7314C308.552 93.8853 310.843 94.9923 310.795 99.2074C310.707 106.684 303.218 105.056 303.206 104.843C303.194 104.63 303.301 99.7816 303.366 96.6558Z" fill="#AE7461"/>
<path d="M304.869 102.049C304.869 102.049 305 102.138 305.219 102.244C305.53 102.37 305.878 102.37 306.19 102.244C306.983 101.966 307.664 100.717 307.711 99.3731C307.74 98.7314 307.622 98.092 307.368 97.5024C307.301 97.268 307.179 97.0531 307.011 96.8767C306.843 96.7003 306.634 96.5677 306.403 96.4901C306.253 96.4493 306.094 96.4623 305.952 96.5256C305.811 96.5896 305.696 96.7003 305.627 96.8394C305.527 97.0466 305.574 97.2005 305.533 97.2123C305.491 97.2242 305.373 97.0821 305.438 96.7743C305.483 96.5907 305.589 96.4273 305.74 96.3125C305.842 96.2349 305.958 96.1781 306.082 96.1467C306.206 96.1154 306.335 96.1094 306.462 96.129C306.769 96.1941 307.054 96.3374 307.29 96.5446C307.525 96.7524 307.703 97.017 307.806 97.313C308.115 97.9648 308.262 98.6817 308.232 99.4027C308.167 100.906 307.38 102.309 306.296 102.611C306.095 102.665 305.885 102.675 305.681 102.637C305.476 102.601 305.281 102.519 305.112 102.398C304.881 102.227 304.84 102.061 304.869 102.049Z" fill="#6F4439"/>
<path d="M302.904 82.1874C302.004 82.9487 300.927 83.472 299.772 83.7088C298.588 83.8509 297.256 83.2056 297.031 82.0512C296.937 81.5303 297.031 80.9264 296.7 80.5298C296.368 80.1331 295.516 80.2278 294.924 80.3048C293.833 80.4137 292.739 80.1432 291.825 79.5394C290.91 78.9355 290.232 78.0351 289.904 76.9896C289.371 77.8303 288.074 77.8184 287.228 77.2975C286.381 76.7765 285.819 75.9003 285.15 75.1603C284.481 74.4203 283.54 73.7691 282.557 73.929C282.006 74.0178 281.497 74.3611 280.941 74.3197C279.958 74.2546 279.455 73.1357 279.289 72.1471C279.123 71.1584 278.981 70.0395 278.141 69.5304C277.3 69.0213 276.365 69.3587 275.465 69.5304C274.565 69.7021 273.393 69.4949 273.144 68.6187C273.101 68.3825 273.106 68.1404 273.159 67.9066C273.212 67.6727 273.311 67.4513 273.452 67.2571C274.039 66.3401 274.919 65.6487 275.948 65.2952C276.978 64.9418 278.097 64.9466 279.123 65.3094C279.466 64.0586 280.171 62.9367 281.15 62.0866C282.13 61.2359 283.34 60.6954 284.627 60.5326C285.914 60.3698 287.22 60.5918 288.38 61.1714C289.541 61.7509 290.504 62.6614 291.147 63.788C291.927 63.0533 292.872 62.5182 293.903 62.2263C294.934 61.935 296.02 61.896 297.069 62.1132C298.118 62.3305 299.099 62.7976 299.929 63.4743C300.759 64.1515 301.415 65.0182 301.838 66.0021C302.748 65.7434 303.714 65.757 304.616 66.0429C305.518 66.3283 306.316 66.8729 306.911 67.6088C307.506 68.344 307.871 69.2386 307.962 70.1798C308.053 71.1217 307.864 72.0695 307.421 72.9048C308.777 73.6448 309.955 74.959 310.014 76.5042C310.073 78.0493 308.599 79.6181 307.095 79.2451C307.42 79.8484 307.501 80.5535 307.32 81.2141C307.14 81.8754 306.712 82.4413 306.126 82.7959C305.539 83.1506 304.839 83.266 304.17 83.1186C303.501 82.9712 302.914 82.5722 302.531 82.0039" fill="#263238"/>
<path d="M278.632 67.488C278.623 67.533 278.623 67.5792 278.632 67.6242C278.632 67.713 278.632 67.8491 278.685 68.0208C278.802 68.5258 279.002 69.0083 279.277 69.4475C279.702 70.1473 280.281 70.741 280.97 71.1821C281.88 71.7824 282.961 72.0671 284.049 71.9931L283.919 71.8274C283.706 72.5123 283.775 73.2529 284.108 73.8875C284.456 74.5535 284.901 75.1639 285.428 75.699C285.681 76.0099 285.967 76.2916 286.281 76.5397C286.635 76.7735 287.042 76.9162 287.465 76.9541C287.903 77.0068 288.348 76.9523 288.761 76.7942C289.173 76.6368 289.541 76.3804 289.833 76.0483L289.554 75.9714C289.674 76.7457 289.954 77.4869 290.377 78.1464C290.801 78.8065 291.357 79.37 292.011 79.8016C292.731 80.3125 293.597 80.5765 294.48 80.5535C295.309 80.4948 296.122 80.2947 296.883 79.9615L296.682 79.8786C297.089 80.7743 297.713 81.5539 298.5 82.1459C298.859 82.4484 299.282 82.6663 299.737 82.7829C300.192 82.8995 300.667 82.9126 301.128 82.8208C301.909 82.6361 302.62 82.2264 303.172 81.6427C303.723 81.059 304.091 80.3261 304.23 79.5352L304.064 79.6181C304.859 80.0218 305.769 80.1373 306.64 79.9437C307.29 79.8117 307.899 79.5251 308.416 79.109C308.739 78.8485 309.016 78.5341 309.232 78.1795C309.308 78.057 309.37 77.9256 309.416 77.7888C309.134 78.2571 308.768 78.6703 308.339 79.0083C307.831 79.3943 307.238 79.6536 306.61 79.7661C305.783 79.9313 304.924 79.8081 304.177 79.4168L304.035 79.3399V79.4997C303.89 80.2397 303.533 80.9211 303.007 81.4616C302.482 82.0015 301.81 82.3774 301.075 82.5426C300.659 82.6213 300.23 82.6065 299.82 82.4994C299.411 82.3916 299.031 82.1939 298.707 81.921C297.967 81.3568 297.381 80.6156 297.002 79.7661L296.943 79.6299L296.801 79.6832C296.07 79.9964 295.291 80.1829 294.498 80.2338C293.682 80.2557 292.881 80.0106 292.218 79.5352C291.603 79.1279 291.079 78.5969 290.679 77.9765C290.28 77.3555 290.014 76.6587 289.898 75.9299L289.845 75.5747L289.614 75.853C289.354 76.1472 289.026 76.3745 288.659 76.5148C288.292 76.6545 287.896 76.7043 287.506 76.6581C287.131 76.6255 286.769 76.5018 286.452 76.297C286.157 76.0637 285.887 75.7997 285.647 75.5096C285.136 74.9975 284.704 74.4132 284.363 73.775C284.206 73.4944 284.109 73.1854 284.074 72.8657C284.039 72.5466 284.069 72.224 284.161 71.9162L284.221 71.7326H284.031C282.992 71.8155 281.953 71.5604 281.071 71.0045C280.397 70.5889 279.823 70.0289 279.39 69.3646C279.029 68.788 278.773 68.1528 278.632 67.488Z" fill="#455A64"/>
<path d="M286.227 101.865C285.961 101.895 286.269 103.641 284.984 105.175C283.7 106.708 281.787 106.832 281.817 107.081C281.817 107.193 282.297 107.347 283.09 107.229C284.125 107.06 285.068 106.532 285.754 105.737C286.401 104.98 286.734 104.003 286.683 103.008C286.618 102.238 286.328 101.824 286.227 101.865Z" fill="#263238"/>
<path d="M225.18 186.883C226.127 186.504 257.415 182.739 257.415 182.739L270.107 171.988L268.923 203.103L228.975 206.951L225.18 186.883Z" fill="#1E2053"/>
<path opacity="0.3" d="M264.495 176.747C264.116 176.937 260.979 179.707 260.979 179.707L261.938 203.666L264.495 176.747Z" fill="black"/>
<path d="M317.799 233.088H264.957C264.957 233.088 267.751 248.001 268.787 254.868C269.368 258.838 270.221 262.765 271.339 266.619H319.202C319.202 266.619 322.754 257.958 323.399 252.411C324.044 246.864 317.799 233.088 317.799 233.088Z" fill="#263238"/>
<path d="M261.02 234.888C261.02 234.888 259.54 251.884 261.02 266.619H279.325V253.044L261.02 234.888Z" fill="#263238"/>
<path d="M271.191 151.552L276.886 139.12L277.59 131.424C277.59 131.424 288.512 124.557 293.692 121.952C297.65 120.069 301.714 118.419 305.864 117.009V124.279L271.191 151.552Z" fill="#EBEBEB"/>
<path d="M318.787 215.269C318.787 215.269 321.883 173.699 322.091 170.608C322.091 170.608 323.92 148.397 319.977 139.943C316.035 131.489 307.208 124.048 307.208 124.048L306.391 119.608L289.158 130.477L281.189 137.403C278.453 140.328 275.939 143.455 273.671 146.757C271.41 149.888 268.894 153.914 267.751 158.976C267.343 160.829 262.601 182.958 262.459 198.379C262.459 198.379 261.73 211.841 260.949 219.46C259.99 228.897 258.522 250.404 258.841 263.144L314.744 261.439C328.549 259.332 326.122 257.958 326.122 257.958L318.787 215.269Z" fill="#1E2053"/>
<path d="M305.864 124.279L305.479 124.456L304.337 124.93C303.851 125.167 303.259 125.474 302.561 125.836C301.862 126.197 301.098 126.676 300.275 127.262C295.703 130.486 291.577 134.301 288.003 138.605L287.974 138.646H287.926L282.563 139.635L282.681 139.499C282.598 141.991 282.51 144.602 282.415 147.307V147.367L282.367 147.414C279.517 150.083 276.882 152.973 274.488 156.057C273.492 157.351 272.59 158.713 271.788 160.136L271.492 160.663L271.273 161.213C271.116 161.576 270.98 161.948 270.865 162.326C270.628 163.084 270.391 163.836 270.196 164.594C269.373 167.613 268.686 170.561 268.047 173.367C266.78 178.985 265.72 184.065 264.838 188.327C263.062 196.864 262.097 202.162 262.097 202.162C262.122 201.836 262.164 201.513 262.222 201.191C262.316 200.558 262.476 199.622 262.689 198.421C263.127 196.023 263.779 192.56 264.625 188.286C265.472 184.011 266.514 178.932 267.775 173.308C268.402 170.496 269.083 167.548 269.906 164.517C270.101 163.753 270.338 162.995 270.581 162.232C270.695 161.845 270.831 161.466 270.989 161.095L271.22 160.503L271.516 159.964C272.322 158.517 273.234 157.132 274.245 155.82C276.659 152.74 279.314 149.856 282.184 147.195L282.137 147.301C282.231 144.596 282.326 141.973 282.415 139.493V139.38H282.527L287.891 138.41L287.814 138.457C291.412 134.145 295.58 130.343 300.204 127.156C301.033 126.564 301.844 126.155 302.519 125.753C303.194 125.35 303.822 125.101 304.295 124.876L305.45 124.432L305.864 124.279Z" fill="#263238"/>
<path d="M287.098 157.129L287.772 212.593L279.325 266.619H301.59C301.59 266.619 311.713 225.599 314.069 216.98C316.354 208.609 319.788 166.476 320.09 164.41C320.208 163.599 322.624 149.018 315.514 142.181" fill="#1E2053"/>
<path d="M315.514 142.181C315.514 142.181 315.679 142.335 315.981 142.642C316.424 143.111 316.831 143.611 317.201 144.14C318.571 146.206 319.515 148.525 319.977 150.96C320.722 154.816 320.866 158.764 320.403 162.664C320.066 164.931 319.9 167.364 319.658 169.951C319.415 172.538 319.172 175.279 318.912 178.139C318.379 183.881 317.781 190.174 317.059 196.923C316.686 200.291 316.301 203.784 315.821 207.372C315.408 211.075 314.754 214.747 313.862 218.365C310.138 233.165 306.047 249.492 301.744 266.637V266.755H279.147V266.584C282.273 246.657 285.162 228.263 287.624 212.564C287.447 195.768 287.299 181.904 287.192 172.231C287.151 167.4 287.115 163.623 287.092 161.036C287.092 159.757 287.092 158.774 287.092 158.076C287.092 157.377 287.092 157.075 287.092 157.075C287.092 157.075 287.092 157.413 287.127 158.076C287.163 158.739 287.157 159.733 287.18 161.036C287.216 163.617 287.275 167.4 287.352 172.231C287.476 181.904 287.666 195.768 287.891 212.564C285.44 228.269 282.563 246.663 279.467 266.595L279.319 266.418H301.584L301.436 266.53L313.584 218.264C314.476 214.659 315.132 210.998 315.549 207.307C316.029 203.725 316.419 200.232 316.798 196.864C317.532 190.121 318.142 183.84 318.693 178.091C318.961 175.218 319.215 172.489 319.456 169.904C319.711 167.329 319.888 164.866 320.226 162.611C320.698 158.729 320.575 154.798 319.859 150.954C319.411 148.522 318.488 146.203 317.142 144.128C316.784 143.597 316.388 143.093 315.958 142.619C315.662 142.352 315.514 142.181 315.514 142.181Z" fill="#263238"/>
<path d="M298.878 218.051C298.289 217.943 297.712 217.777 297.156 217.554C296.108 217.199 294.681 216.654 293.136 215.968C291.591 215.281 290.229 214.588 289.264 214.049C288.724 213.788 288.213 213.473 287.737 213.108C288.298 213.317 288.842 213.569 289.365 213.86C290.354 214.345 291.733 215.003 293.26 215.689C294.788 216.376 296.22 216.944 297.233 217.353C297.797 217.546 298.347 217.78 298.878 218.051Z" fill="#263238"/>
<path d="M260.754 221.728C260.747 221.68 260.747 221.633 260.754 221.586C260.754 221.467 260.754 221.331 260.754 221.159C260.754 220.763 260.801 220.218 260.842 219.525C260.931 218.087 261.061 216.044 261.221 213.528C261.565 208.467 262.05 201.475 262.737 193.768C263.424 186.06 264.205 179.08 264.85 174.048C265.17 171.532 265.442 169.496 265.649 168.092C265.75 167.412 265.833 166.873 265.892 166.476C265.922 166.311 265.945 166.174 265.963 166.062C265.968 166.013 265.98 165.965 265.999 165.92C265.999 165.92 265.999 165.967 265.999 166.062C265.999 166.157 265.999 166.316 265.957 166.488C265.916 166.885 265.851 167.424 265.774 168.11C265.602 169.543 265.365 171.579 265.069 174.078C264.477 179.116 263.731 186.083 263.045 193.791C262.358 201.499 261.861 208.491 261.446 213.546C261.245 216.056 261.079 218.093 260.967 219.537C260.908 220.224 260.854 220.769 260.819 221.165C260.819 221.337 260.789 221.473 260.777 221.586C260.778 221.634 260.77 221.682 260.754 221.728Z" fill="#263238"/>
<path d="M305.864 135.183C305.294 133.653 304.594 132.175 303.768 130.767C302.852 129.414 301.825 128.141 300.696 126.96C301.116 127.207 301.497 127.514 301.827 127.872C302.665 128.692 303.405 129.608 304.029 130.601C304.655 131.593 305.16 132.657 305.532 133.768C305.711 134.221 305.823 134.698 305.864 135.183Z" fill="#263238"/>
<path d="M266.561 204.098C266.62 204.223 266.639 204.364 266.614 204.5C266.576 204.882 266.404 205.239 266.129 205.507C265.924 205.713 265.664 205.858 265.38 205.923C265.096 205.988 264.799 205.971 264.525 205.874C264.197 205.761 263.908 205.556 263.696 205.282C263.471 204.982 263.354 204.615 263.364 204.24C263.364 203.775 263.513 203.322 263.791 202.949C263.927 202.772 264.106 202.632 264.312 202.541C264.525 202.464 264.679 202.423 264.856 202.369H264.898C265.278 202.357 265.653 202.465 265.969 202.677C266.206 202.852 266.381 203.099 266.466 203.382C266.558 203.611 266.591 203.859 266.561 204.104C266.52 204.104 266.49 203.843 266.318 203.441C266.224 203.2 266.059 202.994 265.845 202.849C265.558 202.682 265.229 202.604 264.898 202.624H264.939C264.779 202.683 264.572 202.742 264.424 202.801C264.267 202.879 264.132 202.993 264.027 203.133C263.799 203.457 263.675 203.843 263.672 204.24C263.667 204.538 263.755 204.83 263.926 205.074C264.095 205.319 264.338 205.503 264.619 205.602C264.848 205.689 265.096 205.712 265.336 205.667C265.577 205.622 265.8 205.512 265.981 205.347C266.24 205.121 266.42 204.818 266.496 204.483C266.549 204.24 266.531 204.104 266.561 204.098Z" fill="#263238"/>
<path d="M265.732 223.711C265.791 223.836 265.809 223.977 265.786 224.113C265.749 224.496 265.577 224.853 265.3 225.12C265.095 225.327 264.835 225.472 264.551 225.537C264.267 225.602 263.971 225.585 263.696 225.487C263.369 225.372 263.082 225.167 262.867 224.895C262.642 224.595 262.525 224.228 262.536 223.853C262.536 223.388 262.686 222.936 262.962 222.562C263.099 222.385 263.277 222.245 263.483 222.154C263.696 222.077 263.85 222.036 264.027 221.982H264.069C264.449 221.97 264.824 222.078 265.14 222.29C265.378 222.465 265.552 222.712 265.638 222.995C265.729 223.224 265.762 223.472 265.732 223.717C265.697 223.717 265.661 223.456 265.49 223.054C265.397 222.812 265.232 222.604 265.016 222.462C264.729 222.295 264.4 222.217 264.069 222.237H264.11C263.95 222.296 263.743 222.355 263.601 222.414C263.442 222.49 263.303 222.604 263.199 222.746C262.97 223.07 262.846 223.456 262.843 223.853C262.838 224.151 262.926 224.443 263.097 224.687C263.267 224.932 263.509 225.116 263.791 225.215C264.019 225.302 264.267 225.325 264.507 225.28C264.748 225.235 264.971 225.125 265.152 224.96C265.411 224.734 265.591 224.431 265.667 224.096C265.72 223.859 265.703 223.717 265.732 223.711Z" fill="#263238"/>
<path d="M313.009 138.901C312.98 138.954 312.246 138.481 310.943 137.983C310.175 137.693 309.382 137.469 308.575 137.314C307.599 137.133 306.608 137.046 305.615 137.054C304.62 137.074 303.629 137.189 302.655 137.397C301.863 137.576 301.086 137.821 300.335 138.131C299.05 138.664 298.328 139.156 298.292 139.102C298.44 138.959 298.605 138.836 298.784 138.735C298.971 138.597 299.17 138.472 299.376 138.362C299.65 138.204 299.933 138.06 300.222 137.93C300.984 137.585 301.777 137.314 302.59 137.119C304.573 136.642 306.639 136.613 308.635 137.036C309.445 137.211 310.238 137.461 311.003 137.782C311.296 137.902 311.583 138.038 311.861 138.191C312.079 138.292 312.289 138.411 312.488 138.546C312.677 138.64 312.853 138.76 313.009 138.901Z" fill="#263238"/>
<g opacity="0.3">
<path opacity="0.3" d="M264.235 190.784C266.644 187.273 267.532 183.964 268.823 179.903C270.735 173.87 271.268 167.056 274.275 161.486C276.051 158.206 278.123 154.844 281.201 152.736C284.28 150.628 284.647 148.077 284.588 141.026C286.736 141.026 289.004 139.392 289.27 139.102C290.526 137.69 291.429 136 291.905 134.171C290.401 135.811 287.891 138.522 287.891 138.522C287.891 138.522 282.45 139.534 282.527 139.499C282.397 142.21 282.391 144.596 282.255 147.307C282.255 147.307 271.818 158.384 271.007 160.61C270.196 162.836 264.235 190.784 264.235 190.784Z" fill="black"/>
</g>
<g opacity="0.3">
<path opacity="0.3" d="M302.987 259.924C316.218 234.888 320.327 201.967 319.563 170.608C319.563 170.608 315.768 208.727 314.484 215.269C313.199 221.811 302.987 259.924 302.987 259.924Z" fill="black"/>
</g>
<path d="M305.006 120.247C304.917 120.336 304.818 120.414 304.71 120.478L303.828 121.07L300.536 123.225L289.696 130.24L285.014 133.2L283.522 134.384C283.049 134.732 282.601 135.114 282.184 135.527C281.361 136.32 280.633 137.089 279.976 137.788L279.857 137.912L279.792 137.758L278.087 133.792C277.904 133.348 277.756 132.987 277.637 132.709C277.576 132.587 277.531 132.457 277.501 132.324C277.581 132.436 277.646 132.557 277.697 132.685C277.827 132.951 277.993 133.277 278.2 133.739L279.976 137.646L279.792 137.616C280.438 136.906 281.16 136.124 281.983 135.319C282.402 134.891 282.854 134.496 283.332 134.135L284.818 132.951L289.495 129.95L300.406 123.029L303.733 120.957L304.645 120.413C304.759 120.345 304.88 120.29 305.006 120.247Z" fill="#263238"/>
<path d="M250.405 92.944L243.011 92.0797C238.846 96.3125 233.247 98.8338 227.317 99.1488C221.387 99.4631 215.554 97.548 210.964 93.7799C206.374 90.0112 203.36 84.6625 202.514 78.7846C201.667 72.9066 203.051 66.9244 206.391 62.0144C209.732 57.1047 214.788 53.622 220.567 52.2512C226.345 50.8804 232.427 51.7206 237.617 54.6067C242.808 57.4928 246.73 62.2157 248.615 67.8479C250.499 73.4796 250.209 79.6122 247.801 85.0408L250.405 92.944Z" fill="white"/>
<path d="M215.176 75.9299L218.017 72.7864L224.044 77.629L232.995 67.3459L235.925 70.1994L223.908 83.4187L215.176 75.9299Z" fill="#263238"/>
<path d="M185.262 94.9686L189.956 94.3766C189.972 94.3707 189.988 94.3707 190.004 94.3766C192.384 96.7719 195.324 98.536 198.558 99.5093C199.573 99.7899 200.603 100.015 201.642 100.184L203.306 100.332C203.59 100.356 203.875 100.356 204.158 100.332H205.029C207.504 100.258 209.944 99.7277 212.227 98.7693C212.819 98.5088 213.459 98.2187 214.057 97.8931L213.506 97.6741C210.586 96.4569 207.941 94.6649 205.727 92.4053C203.332 89.9621 201.512 87.0151 200.399 83.7798C199.226 80.3456 198.852 76.6889 199.304 73.0883C199.802 69.2983 201.225 65.6895 203.448 62.5803C203.711 62.1866 204 61.8107 204.312 61.4555L205.212 60.3662L205.597 59.9755H204.934C202.139 59.921 199.363 60.4432 196.779 61.51C194.194 62.5762 191.858 64.1639 189.915 66.1738C188.203 67.9261 186.827 69.9768 185.854 72.224C185.414 73.2553 185.052 74.3179 184.77 75.403C183.706 79.74 184.108 84.3073 185.913 88.3915C185.919 88.4033 185.923 88.4164 185.923 88.43C185.923 88.4436 185.919 88.4566 185.913 88.4685L184.238 93.4472C184.048 94.0392 183.9 94.4477 183.794 94.7496C183.687 95.0515 183.64 95.1936 183.64 95.1936L184.06 95.1344L185.262 94.9686Z" fill="#F5F5F5"/>
</svg>
