<svg width="24" height="24" viewBox="0 0 24 24" fill="none" xmlns="http://www.w3.org/2000/svg">
<path d="M22.5124 12L23.8387 9.70763C23.9982 9.43183 24.0415 9.10401 23.9593 8.79625C23.877 8.48849 23.676 8.22598 23.4002 8.06646L21.1055 6.74006V4.09689C21.1055 3.77825 20.979 3.47265 20.7537 3.24734C20.5284 3.02203 20.2228 2.89545 19.9041 2.89545H17.2623L15.9371 0.60189C15.7771 0.326659 15.5151 0.125524 15.2079 0.0420175C15.0555 0.000706918 14.8964 -0.00994519 14.7399 0.0106785C14.5833 0.0313022 14.4325 0.0827917 14.296 0.162162L12.0013 1.48856L9.70662 0.16096C9.43068 0.00164619 9.10276 -0.0415272 8.795 0.0409373C8.48723 0.123402 8.22482 0.32475 8.0655 0.600689L6.73915 2.89545H4.09726C3.77863 2.89545 3.47305 3.02203 3.24774 3.24734C3.02243 3.47265 2.89586 3.77825 2.89586 4.09689V6.73886L0.601172 8.06526C0.46425 8.14402 0.34424 8.24906 0.248036 8.37434C0.151832 8.49963 0.0813312 8.64269 0.0405829 8.7953C-0.000165301 8.94792 -0.0103573 9.10708 0.0105924 9.26365C0.0315421 9.42021 0.0832205 9.5711 0.162659 9.70763L1.48901 12L0.162659 14.2923C0.00405985 14.5684 -0.0389706 14.896 0.0429489 15.2036C0.124868 15.5113 0.325094 15.7741 0.59997 15.9347L2.89465 17.2611V19.9031C2.89465 20.2217 3.02123 20.5273 3.24654 20.7526C3.47184 20.9779 3.77743 21.1045 4.09606 21.1045H6.73915L8.0655 23.3993C8.17186 23.5811 8.32373 23.7321 8.50615 23.8374C8.68857 23.9428 8.89527 23.9988 9.10592 24C9.31496 24 9.5228 23.9447 9.70782 23.8378L12.0001 22.5114L14.2948 23.8378C14.5707 23.9969 14.8984 24.0401 15.206 23.9579C15.5137 23.8757 15.7762 23.6748 15.9359 23.3993L17.2611 21.1045H19.9029C20.2216 21.1045 20.5272 20.9779 20.7525 20.7526C20.9778 20.5273 21.1043 20.2217 21.1043 19.9031V17.2611L23.399 15.9347C23.5357 15.8557 23.6555 15.7506 23.7515 15.6253C23.8475 15.4999 23.9179 15.3569 23.9587 15.2044C23.9994 15.0519 24.0096 14.8928 23.9889 14.7363C23.9681 14.5798 23.9167 14.429 23.8375 14.2923L22.5124 12ZM8.99659 5.98075C9.4747 5.98091 9.93316 6.171 10.2711 6.50919C10.6091 6.84739 10.7989 7.306 10.7987 7.78412C10.7985 8.26224 10.6085 8.72072 10.2703 9.05869C9.93209 9.39666 9.4735 9.58644 8.99539 9.58628C8.51728 9.58612 8.05882 9.39604 7.72086 9.05784C7.3829 8.71964 7.19312 8.26104 7.19328 7.78292C7.19344 7.30479 7.38352 6.84632 7.72171 6.50835C8.05989 6.17037 8.51848 5.98059 8.99659 5.98075ZM9.35701 17.5146L7.43476 16.0741L14.6432 6.46253L16.5654 7.90306L9.35701 17.5146ZM15.0036 17.9952C14.7669 17.9951 14.5325 17.9484 14.3138 17.8577C14.0951 17.7671 13.8964 17.6342 13.7291 17.4667C13.5617 17.2993 13.429 17.1005 13.3385 16.8818C13.248 16.663 13.2014 16.4286 13.2015 16.1918C13.2016 15.9551 13.2483 15.7207 13.339 15.502C13.4296 15.2833 13.5625 15.0846 13.7299 14.9172C13.8974 14.7499 14.0962 14.6172 14.3149 14.5267C14.5336 14.4361 14.7681 14.3896 15.0048 14.3897C15.4829 14.3898 15.9414 14.5799 16.2793 14.9181C16.6173 15.2563 16.8071 15.7149 16.8069 16.193C16.8068 16.6711 16.6167 17.1296 16.2785 17.4676C15.9403 17.8056 15.4817 17.9953 15.0036 17.9952Z" fill="white"/>
</svg>
