<svg width="24" height="24" viewBox="0 0 24 24" fill="none" xmlns="http://www.w3.org/2000/svg">
<path d="M23.1 4.803V0.96C23.1 0.429 22.671 0 22.14 0H1.86002C1.32902 0 0.900018 0.429 0.900018 0.96V4.803C0.399018 4.833 1.85878e-05 5.25 1.85878e-05 5.76V9.711C-0.00190263 10.4371 0.145127 11.1559 0.432018 11.823C0.561018 12.129 0.720018 12.417 0.900018 12.69V23.04C0.900018 23.568 1.32902 24 1.86002 24H10.08V18.72H13.92V24H22.14C22.671 24 23.1 23.571 23.1 23.04V12.69C23.2828 12.4163 23.4395 12.126 23.568 11.823C23.853 11.154 24 10.443 24 9.711V5.76C24 5.25 23.601 4.833 23.1 4.803ZM20.94 21.843H15.84V17.76C15.84 17.229 15.411 16.8 14.88 16.8H9.12001C8.58901 16.8 8.16001 17.229 8.16001 17.76V21.843H3.06002V14.577C3.14702 14.619 3.23702 14.661 3.33002 14.697C3.99902 14.979 4.71001 15.12 5.44201 15.12C6.17401 15.12 6.88201 14.979 7.55401 14.697C7.96801 14.523 8.35801 14.301 8.71501 14.034C8.72101 14.031 8.72701 14.031 8.73301 14.034C9.09112 14.3021 9.4811 14.5248 9.89401 14.697C10.563 14.979 11.274 15.12 12.006 15.12C12.738 15.12 13.446 14.979 14.118 14.697C14.532 14.523 14.922 14.301 15.279 14.034C15.285 14.031 15.291 14.031 15.297 14.034C15.6551 14.3021 16.0451 14.5248 16.458 14.697C17.127 14.979 17.838 15.12 18.57 15.12C19.302 15.12 20.01 14.979 20.682 14.697C20.772 14.658 20.862 14.619 20.952 14.577V21.843H20.94ZM20.94 4.8H3.06002V2.16H20.94V4.8Z" fill="white"/>
</svg>
