<svg width="20" height="16" viewBox="0 0 20 16" fill="none" xmlns="http://www.w3.org/2000/svg">
<path d="M2.75 0H6.75C7.47935 0 8.17882 0.289731 8.69454 0.805456C9.21027 1.32118 9.5 2.02065 9.5 2.75V13.25C9.5 13.6111 9.42887 13.9687 9.29067 14.3024C9.15247 14.636 8.9499 14.9392 8.69454 15.1945C8.43918 15.4499 8.13602 15.6525 7.80238 15.7907C7.46873 15.9289 7.11114 16 6.75 16H2.75C2.38886 16 2.03127 15.9289 1.69762 15.7907C1.36398 15.6525 1.06082 15.4499 0.805456 15.1945C0.550095 14.9392 0.347532 14.636 0.209331 14.3024C0.0711308 13.9687 0 13.6111 0 13.25V2.75C0 2.02065 0.289731 1.32118 0.805456 0.805456C1.32118 0.289731 2.02065 0 2.75 0V0ZM4 5V11C4 11.1989 4.07902 11.3897 4.21967 11.5303C4.36032 11.671 4.55109 11.75 4.75 11.75C4.94891 11.75 5.13968 11.671 5.28033 11.5303C5.42098 11.3897 5.5 11.1989 5.5 11V5C5.5 4.80109 5.42098 4.61032 5.28033 4.46967C5.13968 4.32902 4.94891 4.25 4.75 4.25C4.55109 4.25 4.36032 4.32902 4.21967 4.46967C4.07902 4.61032 4 4.80109 4 5V5ZM13.25 0H17.25C17.9793 0 18.6788 0.289731 19.1945 0.805456C19.7103 1.32118 20 2.02065 20 2.75V13.25C20 13.6111 19.9289 13.9687 19.7907 14.3024C19.6525 14.636 19.4499 14.9392 19.1945 15.1945C18.9392 15.4499 18.636 15.6525 18.3024 15.7907C17.9687 15.9289 17.6111 16 17.25 16H13.25C12.8889 16 12.5313 15.9289 12.1976 15.7907C11.864 15.6525 11.5608 15.4499 11.3055 15.1945C11.0501 14.9392 10.8475 14.636 10.7093 14.3024C10.5711 13.9687 10.5 13.6111 10.5 13.25V2.75C10.5 2.02065 10.7897 1.32118 11.3055 0.805456C11.8212 0.289731 12.5207 0 13.25 0V0ZM15.5 5.75V7.25H14.25C14.0511 7.25 13.8603 7.32902 13.7197 7.46967C13.579 7.61032 13.5 7.80109 13.5 8V11C13.5 11.414 13.836 11.75 14.25 11.75H16.25C16.4489 11.75 16.6397 11.671 16.7803 11.5303C16.921 11.3897 17 11.1989 17 11C17 10.8011 16.921 10.6103 16.7803 10.4697C16.6397 10.329 16.4489 10.25 16.25 10.25H15V8.75H16.25C16.4489 8.75 16.6397 8.67098 16.7803 8.53033C16.921 8.38968 17 8.19891 17 8V5C17 4.80109 16.921 4.61032 16.7803 4.46967C16.6397 4.32902 16.4489 4.25 16.25 4.25H14.25C14.0511 4.25 13.8603 4.32902 13.7197 4.46967C13.579 4.61032 13.5 4.80109 13.5 5C13.5 5.19891 13.579 5.38968 13.7197 5.53033C13.8603 5.67098 14.0511 5.75 14.25 5.75H15.5Z" fill="black"/>
</svg>
