<svg width="22" height="24" viewBox="0 0 22 24" fill="none" xmlns="http://www.w3.org/2000/svg">
<path d="M10 15C13 15 18 19 18 19V3C18 3 13 7 10 7M10 15V7M10 15H5C2.791 15 1 14.111 1 11C1 7.889 2.791 7 5 7H10M4 15L7 23H11L8 15H4ZM18 14C18.394 14 18.7841 13.9224 19.1481 13.7716C19.512 13.6209 19.8427 13.3999 20.1213 13.1213C20.3999 12.8427 20.6209 12.512 20.7716 12.1481C20.9224 11.7841 21 11.394 21 11C21 10.606 20.9224 10.2159 20.7716 9.85195C20.6209 9.48797 20.3999 9.15726 20.1213 8.87868C19.8427 8.6001 19.512 8.37913 19.1481 8.22836C18.7841 8.0776 18.394 8 18 8V14Z" stroke="#003579" stroke-width="2"/>
</svg>
