<svg width="21" height="20" viewBox="0 0 21 20" fill="none" xmlns="http://www.w3.org/2000/svg">
<path d="M14.4343 5.74923L6.57556 10.6612C6.71337 11.0999 6.75877 11.5624 6.7089 12.0196L13.9993 14.7531C14.465 14.0887 15.1571 13.6169 15.9457 13.4263C16.7344 13.2356 17.5655 13.3392 18.2833 13.7175C19.0011 14.0958 19.5562 14.7229 19.8447 15.4813C20.1332 16.2397 20.1351 17.0772 19.8503 17.8369C19.5654 18.5967 19.0132 19.2264 18.2972 19.6081C17.5812 19.9898 16.7505 20.0973 15.961 19.9103C15.1714 19.7234 14.4772 19.2549 14.0083 18.5927C13.5395 17.9305 13.3283 17.12 13.4143 16.3132L6.12553 13.5797C5.73495 14.1368 5.18325 14.561 4.54452 14.7955C3.90579 15.0299 3.21063 15.0632 2.55239 14.891C1.89415 14.7189 1.30437 14.3494 0.862241 13.8322C0.420116 13.3151 0.146824 12.675 0.0790716 11.998C0.0113191 11.321 0.15235 10.6395 0.483223 10.0449C0.814096 9.45042 1.31897 8.97138 1.93003 8.67217C2.54109 8.37295 3.22907 8.26788 3.90159 8.37107C4.5741 8.47427 5.19894 8.78077 5.69218 9.24943L13.5493 4.33748C13.3049 3.5638 13.3511 2.72755 13.6792 1.98549C14.0073 1.24343 14.5948 0.646511 15.3315 0.306614C16.0682 -0.0332826 16.9036 -0.0928179 17.6811 0.139168C18.4586 0.371153 19.1248 0.878733 19.5548 1.56676C19.9848 2.25479 20.1492 3.07604 20.017 3.87656C19.8848 4.67708 19.4652 5.40191 18.8369 5.9152C18.2085 6.42849 17.4145 6.69498 16.6037 6.66474C15.7929 6.63449 15.021 6.30958 14.4326 5.7509L14.4343 5.74923Z" fill="white"/>
</svg>
