<svg width="19" height="20" viewBox="0 0 19 20" fill="none" xmlns="http://www.w3.org/2000/svg">
<path d="M16.9898 0H7.00881C5.89781 0 4.99881 0.899 4.99881 2.01V7.647L0.296809 12.289C0.155924 12.4283 0.0596105 12.6064 0.0200909 12.8006C-0.0194287 12.9947 -0.000372298 13.1963 0.0748416 13.3796C0.150055 13.5629 0.278036 13.7197 0.442541 13.8302C0.607046 13.9407 0.800659 13.9998 0.998809 14V19C0.998809 19.2652 1.10417 19.5196 1.2917 19.7071C1.47924 19.8946 1.73359 20 1.99881 20H17.9988C18.264 20 18.5184 19.8946 18.7059 19.7071C18.8935 19.5196 18.9988 19.2652 18.9988 19V2.009C18.9988 0.899 18.1008 0 16.9898 0ZM8.92081 13.111V18H2.99881V12.432L5.98581 9.483L8.92081 12.486V13.111V13.111ZM10.9988 7H8.99881V5H10.9988V7ZM14.9988 15H12.9988V13H14.9988V15ZM14.9988 11H12.9988V9H14.9988V11ZM14.9988 7H12.9988V5H14.9988V7Z" fill="black"/>
<path d="M5 13H7V15H5V13Z" fill="black"/>
</svg>
